<?xml version="1.0" encoding="UTF-8"?>
<level>
  <owner>Fistachka</owner>
  <repo>obezyanki</repo>
  <version>v1.0.3</version>
  <next number="1" owner="Fistachka" repo="obezyanki2"/>
  <readme>
    <ru>811d2cc1aaf79d3f87132df770fcdf039ef6b1ab5bcdfb8e9ccabedc06917d0f</ru>
    <en>d8dd054b6a39a6c31c50818685bb8ba8837b0ad4a0e9adc8f5145c9d23e22bbf</en>
  </readme>
  <license>b1b99f5538d1fd3702219bff50c665196dfa42f6ee755c37fe41a6178d6bc6e5</license>
  <exercise number="1">
    <scale>major</scale>
    <bpm>127</bpm>
    <lowestNote>58</lowestNote>
    <tonalities>8</tonalities>
    <video name="1t.mp4" size="1522939" type="video/mp4" volume="0.5">e3cf56433565c60f426b82ca7032612b62e2f822d7d6c9f308daff02f9d35a4c</video>
    <notes>
      <note number="1" values="58" ticks="648" durationTicks="42" ppq="96" velocity="0.843"/>
      <note number="2" values="58" ticks="697" durationTicks="41" ppq="96" velocity="0.906"/>
      <note number="3" values="58" ticks="744" durationTicks="40" ppq="96" velocity="0.866"/>
      <note number="4" values="58" ticks="793" durationTicks="38" ppq="96" velocity="0.913"/>
      <note number="5" values="58" ticks="229" durationTicks="90" ppq="96" velocity="0.913"/>
      <note number="6" values="188" ticks="329" durationTicks="86" ppq="96" velocity="0.719"/>
      <note number="7" values="58" ticks="421" durationTicks="128" ppq="96" velocity="1"/>
      <note number="8" values="58" ticks="672" durationTicks="95" ppq="96" velocity="1"/>
    </notes>
  </exercise>
  <exercise number="2">
    <scale>major</scale>
    <bpm>127</bpm>
    <lowestNote>58</lowestNote>
    <tonalities>8</tonalities>
    <video name="2t.mp4" size="754707" type="video/mp4" volume="0.5">f7f8fbf0ead6d06b2a34d68bc513e9c2209e05cd92d351b072274f50a5d3fb2d</video>
    <notes>
      <note number="1" values="58" ticks="32" durationTicks="95" ppq="96" velocity="0.843"/>
      <note number="2" values="188" ticks="128" durationTicks="96" ppq="96" velocity="0.906"/>
      <note number="3" values="58" ticks="224" durationTicks="97" ppq="96" velocity="0.858"/>
      <note number="4" values="288" ticks="321" durationTicks="95" ppq="96" velocity="0.906"/>
      <note number="5" values="58" ticks="420" durationTicks="98" ppq="96" velocity="0.906"/>
      <note number="6" values="288" ticks="516" durationTicks="102" ppq="96" velocity="0.906"/>
      <note number="7" values="58" ticks="398" durationTicks="39" ppq="96" velocity="0.906"/>
      <note number="8" values="58" ticks="446" durationTicks="54" ppq="96" velocity="0.906"/>
    </notes>
  </exercise>
  <exercise number="3">
    <scale>major</scale>
    <bpm>127</bpm>
    <lowestNote>58</lowestNote>
    <tonalities>8</tonalities>
    <video name="3t.mp4" size="645206" type="video/mp4" volume="0.5">5693077e5fa87a79c46f3ad8919f30e3235dc95efacf2b2e1c90cae817e92aac</video>
    <notes>
      <note number="1" values="58" ticks="23" durationTicks="41" ppq="96" velocity="0.843"/>
      <note number="2" values="58" ticks="72" durationTicks="41" ppq="96" velocity="0.906"/>
      <note number="3" values="58" ticks="119" durationTicks="42" ppq="96" velocity="0.858"/>
      <note number="4" values="58" ticks="168" durationTicks="41" ppq="96" velocity="0.906"/>
      <note number="5" values="58" ticks="216" durationTicks="56" ppq="96" velocity="0.906"/>
      <note number="6" values="388" ticks="323" durationTicks="93" ppq="96" velocity="0.857"/>
      <note number="7" values="58" ticks="420" durationTicks="92" ppq="96" velocity="0.752"/>
      <note number="8" values="58" ticks="672" durationTicks="95" ppq="96" velocity="0.752"/>
    </notes>
  </exercise>
  <exercise number="4">
    <scale>major</scale>
    <bpm>127</bpm>
    <lowestNote>58</lowestNote>
    <tonalities>8</tonalities>
    <video name="4t.mp4" size="590530" type="video/mp4" volume="0.5">d225bfa88f8f5a35fb5a683cb7ff1aec495c4f226af585476751a4b43950f88b</video>
    <notes>
      <note number="1" values="388" ticks="24" durationTicks="95" ppq="96" velocity="0.843"/>
      <note number="2" values="58" ticks="120" durationTicks="96" ppq="96" velocity="0.906"/>
      <note number="3" values="488" ticks="216" durationTicks="95" ppq="96" velocity="0.85"/>
      <note number="4" values="388" ticks="313" durationTicks="95" ppq="96" velocity="0.906"/>
      <note number="5" values="488" ticks="408" durationTicks="96" ppq="96" velocity="0.906"/>
      <note number="6" values="488" ticks="504" durationTicks="96" ppq="96" velocity="0.8"/>
      <note number="7" values="58" ticks="388" durationTicks="39" ppq="96" velocity="0.906"/>
    </notes>
  </exercise>
  <exercise number="5">
    <scale>major</scale>
    <bpm>127</bpm>
    <lowestNote>58</lowestNote>
    <tonalities>8</tonalities>
    <video name="5t.mp4" size="869188" type="video/mp4" volume="0.5">6a33e5494c92f1bdd2e20f12f39069fc6bc087bc4506d890478658862105aab2</video>
    <notes>
      <note number="1" values="588" ticks="19" durationTicks="42" ppq="96" velocity="0.843"/>
      <note number="2" values="588" ticks="68" durationTicks="39" ppq="96" velocity="0.906"/>
      <note number="3" values="588" ticks="115" durationTicks="41" ppq="96" velocity="0.85"/>
      <note number="4" values="588" ticks="164" durationTicks="47" ppq="96" velocity="0.906"/>
      <note number="5" values="588" ticks="221" durationTicks="95" ppq="96" velocity="0.906"/>
      <note number="6" values="588" ticks="480" durationTicks="95" ppq="96" velocity="0.906"/>
      <note number="7" values="588" ticks="576" durationTicks="95" ppq="96" velocity="0.906"/>
      <note number="8" values="588" ticks="672" durationTicks="95" ppq="96" velocity="0.906"/>
    </notes>
  </exercise>
  <exercise number="6">
    <scale>major</scale>
    <bpm>127</bpm>
    <lowestNote>58</lowestNote>
    <tonalities>8</tonalities>
    <video name="6t.mp4" size="785562" type="video/mp4" volume="0.5">c72ebcfd74f13c4bbec41cc374880222bb75e0182b5cee669f85839cd709053c</video>
    <notes>
      <note number="1" values="588" ticks="48" durationTicks="95" ppq="96" velocity="0.843"/>
      <note number="2" values="388" ticks="144" durationTicks="96" ppq="96" velocity="0.906"/>
      <note number="3" values="188" ticks="240" durationTicks="95" ppq="96" velocity="0.843"/>
      <note number="4" values="388" ticks="337" durationTicks="95" ppq="96" velocity="0.906"/>
      <note number="5" values="188" ticks="432" durationTicks="96" ppq="96" velocity="0.906"/>
      <note number="6" values="388" ticks="529" durationTicks="96" ppq="96" velocity="0.8"/>
      <note number="7" values="58" ticks="404" durationTicks="39" ppq="96" velocity="0.906"/>
      <note number="8" values="58" ticks="452" durationTicks="54" ppq="96" velocity="0.906"/>
    </notes>
  </exercise>
  <exercise number="7">
    <scale>major</scale>
    <bpm>127</bpm>
    <lowestNote>58</lowestNote>
    <tonalities>8</tonalities>
    <video name="7t.mp4" size="649381" type="video/mp4" volume="0.5">9c66ed4ef0668774ed0b67828cfd17edb6d1a4c52a5e2a464fa3fa77510805da</video>
    <notes>
      <note number="1" values="58" ticks="47" durationTicks="43" ppq="96" velocity="0.843"/>
      <note number="2" values="58" ticks="96" durationTicks="41" ppq="96" velocity="0.906"/>
      <note number="3" values="58" ticks="143" durationTicks="41" ppq="96" velocity="0.858"/>
      <note number="4" values="58" ticks="192" durationTicks="38" ppq="96" velocity="0.906"/>
      <note number="5" values="58" ticks="239" durationTicks="61" ppq="96" velocity="0.906"/>
      <note number="6" values="288" ticks="310" durationTicks="73" ppq="96" velocity="0.717"/>
      <note number="7" values="188" ticks="384" durationTicks="96" ppq="96" velocity="0.717"/>
      <note number="8" values="188" ticks="672" durationTicks="95" ppq="96" velocity="0.717"/>
    </notes>
  </exercise>
  <exercise number="8">
    <scale>major</scale>
    <bpm>127</bpm>
    <lowestNote>58</lowestNote>
    <tonalities>8</tonalities>
    <video name="8t.mp4" size="807952" type="video/mp4" volume="0.5">2b577f12cbf1b47775858c45f37cb72d9ac1a0638d7ccebdda3e5fd90f77973e</video>
    <notes>
      <note number="1" values="588" ticks="74" durationTicks="179" ppq="96" velocity="0.843"/>
      <note number="2" values="388" ticks="263" durationTicks="88" ppq="96" velocity="0.906"/>
      <note number="3" values="388" ticks="361" durationTicks="95" ppq="96" velocity="0.858"/>
      <note number="4" values="588" ticks="456" durationTicks="89" ppq="96" velocity="0.906"/>
      <note number="5" values="588" ticks="553" durationTicks="95" ppq="96" velocity="0.906"/>
      <note number="6" values="388" ticks="665" durationTicks="93" ppq="96" velocity="0.802"/>
      <note number="7" values="588" ticks="488" durationTicks="39" ppq="96" velocity="0.906"/>
    </notes>
  </exercise>
</level>
